# 3ds Max Wavefront OBJ Exporter v0.97b - (c)2007 guruware
# File Created: 26.03.2012 23:18:27

#
# object Box019
#

v  0.5270 1.3607 -3.4133
v  5.3736 1.3607 -3.4133
v  5.3736 0.5270 -3.4133
v  0.5270 0.5270 -3.4133
v  5.3736 0.5270 -0.0000
v  5.3736 1.3607 -0.0000
v  0.5270 1.3607 -0.0000
v  0.5270 0.5270 -0.0000
v  5.3736 0.0000 -2.8863
v  5.3736 -0.0000 -0.5270
v  0.5270 -0.0000 -0.5270
v  0.5270 0.0000 -2.8863
v  0.3643 0.0586 -3.1465
v  0.5270 0.0586 -3.1791
v  0.2668 0.0586 -0.3643
v  0.2342 0.0586 -0.5270
v  0.2342 0.5270 -3.3547
v  0.2342 1.3607 -3.3547
v  0.5270 0.2342 -0.0586
v  5.3736 0.2342 -0.0586
v  0.2342 0.0586 -2.8863
v  0.2668 0.0586 -3.0489
v  0.1106 0.2342 -3.1465
v  0.0586 0.2342 -2.8863
v  0.0586 0.5270 -3.1791
v  0.0000 0.5270 -2.8863
v  0.2668 0.2342 -3.3027
v  0.5270 0.2342 -3.3547
v  0.5270 0.0586 -0.2342
v  0.3643 0.0586 -0.2668
v  0.2668 0.2342 -0.1106
v  0.2342 0.5270 -0.0586
v  0.1106 0.2342 -0.2668
v  0.0586 0.5270 -0.2342
v  0.0586 0.2342 -0.5270
v  0.0000 0.5270 -0.5270
v  0.0586 1.3607 -3.1791
v  0.0000 1.3607 -2.8863
v  5.3736 0.0586 -0.2342
v  5.3736 0.2342 -3.3547
v  5.3736 0.0586 -3.1791
v  10.2202 1.3607 -3.4133
v  10.2202 0.5270 -3.4133
v  10.2202 1.3607 -0.0000
v  10.2202 0.5270 -0.0000
v  10.2202 0.0000 -2.8863
v  10.2202 -0.0000 -0.5270
v  10.2202 0.0586 -3.1791
v  10.3829 0.0586 -3.1465
v  10.5130 0.0586 -0.5270
v  10.4805 0.0586 -0.3643
v  10.5130 1.3607 -3.3547
v  10.5130 0.5270 -3.3547
v  10.2202 0.2342 -0.0586
v  10.5130 0.0586 -2.8863
v  10.4805 0.0586 -3.0489
v  10.6366 0.2342 -3.1465
v  10.6887 0.2342 -2.8863
v  10.6887 0.5270 -3.1791
v  10.7472 0.5270 -2.8863
v  10.4805 0.2342 -3.3027
v  10.2202 0.2342 -3.3547
v  10.3829 0.0586 -0.2668
v  10.2202 0.0586 -0.2342
v  10.4805 0.2342 -0.1106
v  10.5130 0.5270 -0.0586
v  10.6366 0.2342 -0.2668
v  10.6887 0.5270 -0.2342
v  10.6887 0.2342 -0.5270
v  10.7472 0.5270 -0.5270
v  10.6887 1.3607 -3.1791
v  10.7472 1.3607 -2.8863
v  0.0000 1.3607 -0.5270
v  0.2342 1.3607 -0.0586
v  0.0586 1.3607 -0.2342
v  10.7472 1.3607 -0.5270
v  10.5130 1.3607 -0.0586
v  10.6887 1.3607 -0.2342
v  0.5270 2.1944 -3.4133
v  5.3736 2.1944 -3.4133
v  5.3736 2.1944 -0.0000
v  0.5270 2.1944 -0.0000
v  5.3736 2.7214 -2.8863
v  0.5270 2.7214 -2.8863
v  0.5270 2.7214 -0.5270
v  5.3736 2.7214 -0.5270
v  0.5270 2.6628 -3.1791
v  0.3643 2.6628 -3.1465
v  0.2342 2.6628 -0.5270
v  0.2668 2.6628 -0.3643
v  0.2342 2.1944 -3.3547
v  0.5270 2.4872 -0.0586
v  5.3736 2.4872 -0.0586
v  0.2342 2.6628 -2.8863
v  0.2668 2.6628 -3.0489
v  0.1106 2.4872 -3.1465
v  0.0586 2.4872 -2.8863
v  0.0586 2.1944 -3.1791
v  0.0000 2.1944 -2.8863
v  0.2668 2.4872 -3.3027
v  0.5270 2.4872 -3.3547
v  0.3643 2.6628 -0.2668
v  0.5270 2.6628 -0.2342
v  0.2668 2.4872 -0.1106
v  0.2342 2.1944 -0.0586
v  0.1106 2.4872 -0.2668
v  0.0586 2.1944 -0.2342
v  0.0586 2.4872 -0.5270
v  0.0000 2.1944 -0.5270
v  5.3736 2.6628 -0.2342
v  5.3736 2.4872 -3.3547
v  5.3736 2.6628 -3.1791
v  10.2202 2.1944 -3.4133
v  10.2202 2.1944 -0.0000
v  10.2202 2.7214 -0.5270
v  10.2202 2.7214 -2.8863
v  10.3829 2.6628 -3.1465
v  10.2202 2.6628 -3.1791
v  10.4805 2.6628 -0.3643
v  10.5130 2.6628 -0.5270
v  10.5130 2.1944 -3.3547
v  10.2202 2.4872 -0.0586
v  10.5130 2.6628 -2.8863
v  10.4805 2.6628 -3.0489
v  10.6366 2.4872 -3.1465
v  10.6887 2.4872 -2.8863
v  10.6887 2.1944 -3.1791
v  10.7472 2.1944 -2.8863
v  10.4805 2.4872 -3.3027
v  10.2202 2.4872 -3.3547
v  10.2202 2.6628 -0.2342
v  10.3829 2.6628 -0.2668
v  10.4805 2.4872 -0.1106
v  10.5130 2.1944 -0.0586
v  10.6366 2.4872 -0.2668
v  10.6887 2.1944 -0.2342
v  10.6887 2.4872 -0.5270
v  10.7472 2.1944 -0.5270
# 138 vertices

vn 0.0000 0.0000 -1.0000
vn 0.0000 -0.0000 1.0000
vn 0.0000 -1.0000 -0.0000
vn -0.0392 -0.9798 -0.1960
vn -0.1960 -0.9798 0.0392
vn -0.1961 0.0000 -0.9806
vn 0.0000 -0.1961 0.9806
vn -0.1961 -0.9806 -0.0000
vn -0.1960 -0.9798 -0.0392
vn -0.7001 -0.7001 -0.1400
vn -0.9623 -0.1925 -0.1925
vn -0.1359 -0.9814 -0.1359
vn -0.4947 -0.7145 -0.4947
vn -0.6928 -0.2001 -0.6928
vn -0.1400 -0.7001 -0.7001
vn -0.1925 -0.1925 -0.9623
vn -0.1925 -0.1924 -0.9623
vn -0.0392 -0.9798 0.1960
vn -0.1400 -0.7001 0.7001
vn -0.1925 -0.1925 0.9623
vn -0.1359 -0.9814 0.1359
vn -0.4947 -0.7145 0.4947
vn -0.6928 -0.2001 0.6928
vn -0.7001 -0.7001 0.1400
vn -0.9623 -0.1925 0.1924
vn -0.9623 -0.1924 0.1925
vn -0.7071 0.0000 -0.7071
vn -0.9806 -0.0000 -0.1961
vn -0.9806 0.0000 -0.1961
vn 0.0000 -0.7071 0.7071
vn 0.0000 -0.9806 0.1961
vn -0.7071 -0.7071 -0.0000
vn -0.9806 -0.1961 -0.0000
vn 0.0000 -0.1961 -0.9806
vn 0.0000 -0.7071 -0.7071
vn 0.0000 -0.9806 -0.1961
vn 0.0392 -0.9798 -0.1960
vn 0.1960 -0.9798 0.0392
vn 0.1961 0.0000 -0.9806
vn 0.1961 -0.9806 -0.0000
vn 0.1960 -0.9798 -0.0392
vn 0.7001 -0.7001 -0.1400
vn 0.9623 -0.1925 -0.1925
vn 0.1359 -0.9814 -0.1359
vn 0.4947 -0.7145 -0.4947
vn 0.6928 -0.2001 -0.6928
vn 0.1400 -0.7001 -0.7001
vn 0.1925 -0.1924 -0.9623
vn 0.1925 -0.1925 -0.9623
vn 0.0392 -0.9798 0.1960
vn 0.1400 -0.7001 0.7001
vn 0.1925 -0.1925 0.9623
vn 0.1359 -0.9814 0.1359
vn 0.4947 -0.7145 0.4947
vn 0.6928 -0.2001 0.6928
vn 0.7001 -0.7001 0.1400
vn 0.9623 -0.1924 0.1925
vn 0.9623 -0.1925 0.1924
vn 0.7071 0.0000 -0.7071
vn 0.9806 -0.0000 -0.1961
vn 0.9806 0.0000 -0.1961
vn 0.7071 -0.7071 -0.0000
vn 0.9806 -0.1961 -0.0000
vn -0.0000 -0.1961 -0.9806
vn -0.0000 -0.7071 -0.7071
vn -0.0000 -0.9806 -0.1961
vn -1.0000 0.0000 -0.0000
vn -0.1961 -0.0000 0.9806
vn -0.7071 -0.0000 0.7071
vn -0.9806 -0.0000 0.1961
vn 1.0000 0.0000 -0.0000
vn 0.1961 -0.0000 0.9806
vn 0.7071 -0.0000 0.7071
vn 0.9806 -0.0000 0.1961
vn 0.0000 1.0000 0.0000
vn -0.0392 0.9798 -0.1960
vn -0.1960 0.9798 0.0392
vn 0.0000 0.1961 0.9806
vn -0.1961 0.9806 0.0000
vn -0.1960 0.9798 -0.0392
vn -0.7001 0.7001 -0.1400
vn -0.9623 0.1925 -0.1925
vn -0.1359 0.9814 -0.1359
vn -0.4947 0.7145 -0.4947
vn -0.6928 0.2001 -0.6928
vn -0.1400 0.7001 -0.7001
vn -0.1925 0.1924 -0.9623
vn -0.1924 0.1925 -0.9623
vn -0.0392 0.9798 0.1960
vn -0.1400 0.7001 0.7001
vn -0.1925 0.1925 0.9623
vn -0.1359 0.9814 0.1359
vn -0.4947 0.7145 0.4947
vn -0.6928 0.2001 0.6928
vn -0.7001 0.7001 0.1400
vn -0.9623 0.1924 0.1925
vn -0.9623 0.1925 0.1924
vn 0.0000 0.7071 0.7071
vn 0.0000 0.9806 0.1961
vn -0.7071 0.7071 0.0000
vn -0.9806 0.1961 0.0000
vn 0.0000 0.1961 -0.9806
vn 0.0000 0.7071 -0.7071
vn 0.0000 0.9806 -0.1961
vn 0.0392 0.9798 -0.1960
vn 0.1960 0.9798 0.0392
vn 0.1961 0.9806 0.0000
vn 0.1960 0.9798 -0.0392
vn 0.7001 0.7001 -0.1400
vn 0.9623 0.1925 -0.1925
vn 0.1359 0.9814 -0.1359
vn 0.4947 0.7145 -0.4947
vn 0.6928 0.2001 -0.6928
vn 0.1400 0.7001 -0.7001
vn 0.1924 0.1925 -0.9623
vn 0.1925 0.1924 -0.9623
vn 0.0392 0.9798 0.1960
vn 0.1400 0.7001 0.7001
vn 0.1925 0.1925 0.9623
vn 0.1359 0.9814 0.1359
vn 0.4947 0.7145 0.4947
vn 0.6928 0.2001 0.6928
vn 0.7001 0.7001 0.1400
vn 0.9623 0.1925 0.1924
vn 0.9623 0.1924 0.1925
vn 0.7071 0.7071 0.0000
vn 0.9806 0.1961 0.0000
vn 0.1961 0.0000 0.9806
vn 0.7071 0.0000 0.7071
# 129 vertex normals

vt 0.9510 0.5000 0.0000
vt 0.5000 0.5000 0.0000
vt 0.5000 0.1937 0.0000
vt 0.9510 0.1937 0.0000
vt 0.0490 0.5000 0.0000
vt 0.0490 0.1937 0.0000
vt 0.5000 0.1544 0.0000
vt 0.5000 0.8456 0.0000
vt 0.0490 0.8456 0.0000
vt 0.0490 0.1544 0.0000
vt 0.0000 0.0000 0.0000
vt 0.0000 1.0000 0.0000
vt 0.8063 0.3370 0.0000
vt 0.5000 0.3370 0.0000
vt 0.5000 0.4283 0.0000
vt 0.8063 0.4283 0.0000
vt 0.0490 0.8719 0.0000
vt 0.5000 0.8719 0.0000
vt 0.5000 0.8850 0.0000
vt 0.0490 0.8850 0.0000
vt 0.7009 0.1544 0.0000
vt 0.6481 0.1544 0.0000
vt 0.6481 0.8456 0.0000
vt 0.7009 0.8456 0.0000
vt 0.0071 0.1005 0.0000
vt -0.0532 0.1448 0.0000
vt -0.0733 0.1388 0.0000
vt -0.1320 0.2872 0.0000
vt -0.0733 0.0764 0.0000
vt -0.1320 0.1001 0.0000
vt 0.0071 0.9203 0.0000
vt -0.0532 0.9384 0.0000
vt -0.0733 0.9236 0.0000
vt -0.1320 0.8999 0.0000
vt -0.0733 0.8612 0.0000
vt -0.1320 0.7128 0.0000
vt 0.8063 0.2457 0.0000
vt 0.5000 0.2457 0.0000
vt 0.8063 0.1544 0.0000
vt 0.0490 0.8587 0.0000
vt 0.5000 0.8587 0.0000
vt 0.7536 0.1544 0.0000
vt 0.7536 0.8456 0.0000
vt 0.8063 0.8456 0.0000
vt 0.0490 0.1281 0.0000
vt 0.0490 0.1150 0.0000
vt 0.5000 0.1150 0.0000
vt 0.5000 0.1281 0.0000
vt 0.0490 0.1413 0.0000
vt 0.5000 0.1413 0.0000
vt 0.8063 0.6630 0.0000
vt 0.8063 0.5717 0.0000
vt 0.5000 0.5717 0.0000
vt 0.5000 0.6630 0.0000
vt 0.8063 0.7543 0.0000
vt 0.5000 0.7543 0.0000
# 56 texture coords

g Box019
f 1/1/1 2/2/1 3/3/1 
f 3/3/1 4/4/1 1/1/1 
f 5/3/2 6/2/2 7/5/2 
f 7/5/2 8/6/2 5/3/2 
f 9/7/3 10/8/3 11/9/3 
f 11/9/3 12/10/3 9/7/3 
f 12/10/4 13/11/4 14/11/4 
f 11/9/5 15/12/5 16/12/5 
f 17/13/6 18/14/6 1/15/6 
f 1/15/6 4/16/6 17/13/6 
f 19/17/7 20/18/7 5/19/7 
f 5/19/7 8/20/7 19/17/7 
f 21/21/8 12/22/8 11/23/8 
f 11/23/8 16/24/8 21/21/8 
f 12/10/9 21/25/9 22/11/9 
f 23/11/10 22/11/10 21/25/10 
f 21/25/10 24/26/10 23/11/10 
f 25/27/11 23/11/11 24/26/11 
f 24/26/11 26/28/11 25/27/11 
f 12/10/12 22/11/12 13/11/12 
f 27/11/13 13/11/13 22/11/13 
f 22/11/13 23/11/13 27/11/13 
f 17/29/14 27/11/14 23/11/14 
f 23/11/14 25/27/14 17/29/14 
f 28/11/15 14/11/15 13/11/15 
f 13/11/15 27/11/15 28/11/15 
f 4/30/16 28/11/16 27/11/16 
f 27/11/17 17/29/17 4/30/17 
f 11/9/18 29/31/18 30/12/18 
f 31/12/19 30/12/19 29/31/19 
f 29/31/19 19/32/19 31/12/19 
f 32/33/20 31/12/20 19/32/20 
f 19/32/20 8/34/20 32/33/20 
f 11/9/21 30/12/21 15/12/21 
f 33/12/22 15/12/22 30/12/22 
f 30/12/22 31/12/22 33/12/22 
f 34/35/23 33/12/23 31/12/23 
f 31/12/23 32/33/23 34/35/23 
f 35/12/24 16/12/24 15/12/24 
f 15/12/24 33/12/24 35/12/24 
f 36/36/25 35/12/25 33/12/25 
f 33/12/26 34/35/26 36/36/26 
f 25/37/27 37/38/27 18/14/27 
f 18/14/27 17/13/27 25/37/27 
f 26/39/28 38/7/28 37/38/28 
f 37/38/29 25/37/29 26/39/29 
f 29/40/30 39/41/30 20/18/30 
f 20/18/30 19/17/30 29/40/30 
f 11/9/31 10/8/31 39/41/31 
f 39/41/31 29/40/31 11/9/31 
f 24/42/32 21/21/32 16/24/32 
f 16/24/32 35/43/32 24/42/32 
f 26/39/33 24/42/33 35/43/33 
f 35/43/33 36/44/33 26/39/33 
f 28/45/34 4/46/34 3/47/34 
f 3/47/34 40/48/34 28/45/34 
f 14/49/35 28/45/35 40/48/35 
f 40/48/35 41/50/35 14/49/35 
f 12/10/36 14/49/36 41/50/36 
f 41/50/36 9/7/36 12/10/36 
f 3/3/1 2/2/1 42/1/1 
f 42/1/1 43/4/1 3/3/1 
f 44/5/2 6/2/2 5/3/2 
f 5/3/2 45/6/2 44/5/2 
f 9/7/3 46/10/3 47/9/3 
f 47/9/3 10/8/3 9/7/3 
f 46/10/37 48/11/37 49/11/37 
f 47/9/38 50/12/38 51/12/38 
f 42/15/39 52/14/39 53/13/39 
f 53/13/39 43/16/39 42/15/39 
f 54/17/7 45/20/7 5/19/7 
f 5/19/7 20/18/7 54/17/7 
f 55/21/40 50/24/40 47/23/40 
f 47/23/40 46/22/40 55/21/40 
f 46/10/41 56/11/41 55/25/41 
f 57/11/42 58/26/42 55/25/42 
f 55/25/42 56/11/42 57/11/42 
f 59/27/43 60/28/43 58/26/43 
f 58/26/43 57/11/43 59/27/43 
f 46/10/44 49/11/44 56/11/44 
f 61/11/45 57/11/45 56/11/45 
f 56/11/45 49/11/45 61/11/45 
f 53/29/46 59/27/46 57/11/46 
f 57/11/46 61/11/46 53/29/46 
f 62/11/47 61/11/47 49/11/47 
f 49/11/47 48/11/47 62/11/47 
f 43/30/48 53/29/48 61/11/48 
f 61/11/49 62/11/49 43/30/49 
f 47/9/50 63/12/50 64/31/50 
f 65/12/51 54/32/51 64/31/51 
f 64/31/51 63/12/51 65/12/51 
f 66/33/52 45/34/52 54/32/52 
f 54/32/52 65/12/52 66/33/52 
f 47/9/53 51/12/53 63/12/53 
f 67/12/54 65/12/54 63/12/54 
f 63/12/54 51/12/54 67/12/54 
f 68/35/55 66/33/55 65/12/55 
f 65/12/55 67/12/55 68/35/55 
f 69/12/56 67/12/56 51/12/56 
f 51/12/56 50/12/56 69/12/56 
f 70/36/57 68/35/57 67/12/57 
f 67/12/58 69/12/58 70/36/58 
f 52/14/59 71/38/59 59/37/59 
f 59/37/59 53/13/59 52/14/59 
f 71/38/60 72/7/60 60/39/60 
f 60/39/61 59/37/61 71/38/61 
f 64/40/30 54/17/30 20/18/30 
f 20/18/30 39/41/30 64/40/30 
f 47/9/31 64/40/31 39/41/31 
f 39/41/31 10/8/31 47/9/31 
f 58/42/62 69/43/62 50/24/62 
f 50/24/62 55/21/62 58/42/62 
f 60/39/63 70/44/63 69/43/63 
f 69/43/63 58/42/63 60/39/63 
f 62/45/64 40/48/64 3/47/64 
f 3/47/34 43/46/34 62/45/34 
f 48/49/65 41/50/65 40/48/65 
f 40/48/65 62/45/65 48/49/65 
f 46/10/36 9/7/36 41/50/36 
f 41/50/66 48/49/66 46/10/66 
f 26/39/67 36/44/67 73/8/67 
f 73/8/67 38/7/67 26/39/67 
f 32/51/68 8/52/68 7/53/68 
f 7/53/68 74/54/68 32/51/68 
f 34/55/69 32/51/69 74/54/69 
f 74/54/69 75/56/69 34/55/69 
f 36/44/70 34/55/70 75/56/70 
f 75/56/70 73/8/70 36/44/70 
f 70/44/71 60/39/71 72/7/71 
f 72/7/71 76/8/71 70/44/71 
f 45/52/72 66/51/72 77/54/72 
f 77/54/72 44/53/72 45/52/72 
f 66/51/73 68/55/73 78/56/73 
f 78/56/73 77/54/73 66/51/73 
f 68/55/74 70/44/74 76/8/74 
f 76/8/74 78/56/74 68/55/74 
f 1/1/1 79/4/1 80/3/1 
f 80/3/1 2/2/1 1/1/1 
f 81/3/2 82/6/2 7/5/2 
f 7/5/2 6/2/2 81/3/2 
f 83/7/75 84/10/75 85/9/75 
f 85/9/75 86/8/75 83/7/75 
f 84/10/76 87/11/76 88/11/76 
f 85/9/77 89/12/77 90/12/77 
f 91/13/6 79/16/6 1/15/6 
f 1/15/6 18/14/6 91/13/6 
f 92/17/78 82/20/78 81/19/78 
f 81/19/78 93/18/78 92/17/78 
f 94/21/79 89/24/79 85/23/79 
f 85/23/79 84/22/79 94/21/79 
f 84/10/80 95/11/80 94/25/80 
f 96/11/81 97/26/81 94/25/81 
f 94/25/81 95/11/81 96/11/81 
f 98/27/82 99/28/82 97/26/82 
f 97/26/82 96/11/82 98/27/82 
f 84/10/83 88/11/83 95/11/83 
f 100/11/84 96/11/84 95/11/84 
f 95/11/84 88/11/84 100/11/84 
f 91/29/85 98/27/85 96/11/85 
f 96/11/85 100/11/85 91/29/85 
f 101/11/86 100/11/86 88/11/86 
f 88/11/86 87/11/86 101/11/86 
f 79/30/87 91/29/87 100/11/87 
f 100/11/88 101/11/88 79/30/88 
f 85/9/89 102/12/89 103/31/89 
f 104/12/90 92/32/90 103/31/90 
f 103/31/90 102/12/90 104/12/90 
f 105/33/91 82/34/91 92/32/91 
f 92/32/91 104/12/91 105/33/91 
f 85/9/92 90/12/92 102/12/92 
f 106/12/93 104/12/93 102/12/93 
f 102/12/93 90/12/93 106/12/93 
f 107/35/94 105/33/94 104/12/94 
f 104/12/94 106/12/94 107/35/94 
f 108/12/95 106/12/95 90/12/95 
f 90/12/95 89/12/95 108/12/95 
f 109/36/96 107/35/96 106/12/96 
f 106/12/97 108/12/97 109/36/97 
f 98/37/27 91/13/27 18/14/27 
f 18/14/27 37/38/27 98/37/27 
f 99/39/29 98/37/29 37/38/29 
f 37/38/29 38/7/29 99/39/29 
f 103/40/98 92/17/98 93/18/98 
f 93/18/98 110/41/98 103/40/98 
f 85/9/99 103/40/99 110/41/99 
f 110/41/99 86/8/99 85/9/99 
f 97/42/100 108/43/100 89/24/100 
f 89/24/100 94/21/100 97/42/100 
f 99/39/101 109/44/101 108/43/101 
f 108/43/101 97/42/101 99/39/101 
f 101/45/102 111/48/102 80/47/102 
f 80/47/102 79/46/102 101/45/102 
f 87/49/103 112/50/103 111/48/103 
f 111/48/103 101/45/103 87/49/103 
f 84/10/104 83/7/104 112/50/104 
f 112/50/104 87/49/104 84/10/104 
f 80/3/1 113/4/1 42/1/1 
f 42/1/1 2/2/1 80/3/1 
f 44/5/2 114/6/2 81/3/2 
f 81/3/2 6/2/2 44/5/2 
f 83/7/75 86/8/75 115/9/75 
f 115/9/75 116/10/75 83/7/75 
f 116/10/105 117/11/105 118/11/105 
f 115/9/106 119/12/106 120/12/106 
f 42/15/39 113/16/39 121/13/39 
f 121/13/39 52/14/39 42/15/39 
f 122/17/78 93/18/78 81/19/78 
f 81/19/78 114/20/78 122/17/78 
f 123/21/107 116/22/107 115/23/107 
f 115/23/107 120/24/107 123/21/107 
f 116/10/108 123/25/108 124/11/108 
f 125/11/109 124/11/109 123/25/109 
f 123/25/109 126/26/109 125/11/109 
f 127/27/110 125/11/110 126/26/110 
f 126/26/110 128/28/110 127/27/110 
f 116/10/111 124/11/111 117/11/111 
f 129/11/112 117/11/112 124/11/112 
f 124/11/112 125/11/112 129/11/112 
f 121/29/113 129/11/113 125/11/113 
f 125/11/113 127/27/113 121/29/113 
f 130/11/114 118/11/114 117/11/114 
f 117/11/114 129/11/114 130/11/114 
f 113/30/115 130/11/115 129/11/115 
f 129/11/116 121/29/116 113/30/116 
f 115/9/117 131/31/117 132/12/117 
f 133/12/118 132/12/118 131/31/118 
f 131/31/118 122/32/118 133/12/118 
f 134/33/119 133/12/119 122/32/119 
f 122/32/119 114/34/119 134/33/119 
f 115/9/120 132/12/120 119/12/120 
f 135/12/121 119/12/121 132/12/121 
f 132/12/121 133/12/121 135/12/121 
f 136/35/122 135/12/122 133/12/122 
f 133/12/122 134/33/122 136/35/122 
f 137/12/123 120/12/123 119/12/123 
f 119/12/123 135/12/123 137/12/123 
f 138/36/124 137/12/124 135/12/124 
f 135/12/125 136/35/125 138/36/125 
f 52/14/59 121/13/59 127/37/59 
f 127/37/59 71/38/59 52/14/59 
f 71/38/61 127/37/61 128/39/61 
f 128/39/61 72/7/61 71/38/61 
f 131/40/98 110/41/98 93/18/98 
f 93/18/98 122/17/98 131/40/98 
f 115/9/99 86/8/99 110/41/99 
f 110/41/99 131/40/99 115/9/99 
f 126/42/126 123/21/126 120/24/126 
f 120/24/126 137/43/126 126/42/126 
f 128/39/127 126/42/127 137/43/127 
f 137/43/127 138/44/127 128/39/127 
f 130/45/102 113/46/102 80/47/102 
f 80/47/102 111/48/102 130/45/102 
f 118/49/103 130/45/103 111/48/103 
f 111/48/103 112/50/103 118/49/103 
f 116/10/104 118/49/104 112/50/104 
f 112/50/104 83/7/104 116/10/104 
f 99/39/67 38/7/67 73/8/67 
f 73/8/67 109/44/67 99/39/67 
f 105/51/68 74/54/68 7/53/68 
f 7/53/68 82/52/68 105/51/68 
f 107/55/69 75/56/69 74/54/69 
f 74/54/69 105/51/69 107/55/69 
f 109/44/70 73/8/70 75/56/70 
f 75/56/70 107/55/70 109/44/70 
f 138/44/71 76/8/71 72/7/71 
f 72/7/71 128/39/71 138/44/71 
f 114/52/72 44/53/72 77/54/72 
f 77/54/128 134/51/128 114/52/128 
f 134/51/129 77/54/129 78/56/129 
f 78/56/73 136/55/73 134/51/73 
f 136/55/74 78/56/74 76/8/74 
f 76/8/74 138/44/74 136/55/74 
# 272 faces

